<?xml version="1.0" standalone="no"?><!DOCTYPE svg PUBLIC "-//W3C//DTD SVG 1.1//EN" "http://www.w3.org/Graphics/SVG/1.1/DTD/svg11.dtd"><svg t="1507186536321" class="icon" style="" viewBox="0 0 1024 1024" version="1.1" xmlns="http://www.w3.org/2000/svg" p-id="1866" xmlns:xlink="http://www.w3.org/1999/xlink" width="200" height="200"><defs><style type="text/css"></style></defs><path d="M512 1024Q0 1024 0 512T512 0q512 0 512 512T512 1024z" fill="#DD8C50" p-id="1867"></path><path d="M549.003636 1023.185455q409.832727-15.709091 465.454546-385.163637L763.927273 387.025455l-528.290909 8.610909 69.818181 46.545454v337.454546z" fill="#BF692E" p-id="1868"></path><path d="M500.363636 244.363636L244.363636 395.636364h46.545455v360.727272a23.272727 23.272727 0 0 0 23.272727 23.272728h401.454546a23.272727 23.272727 0 0 0 23.272727-23.272728V395.636364H779.636364z m133.934546 337.454546h-101.818182v104.727273h-34.909091v-104.727273H395.636364v-34.909091h101.818181v-93.090909h34.909091v93.090909h101.818182z" fill="#FFFFFF" p-id="1869"></path></svg>