<?xml version="1.0" standalone="no"?><!DOCTYPE svg PUBLIC "-//W3C//DTD SVG 1.1//EN" "http://www.w3.org/Graphics/SVG/1.1/DTD/svg11.dtd"><svg t="1507186654953" class="icon" style="" viewBox="0 0 1024 1024" version="1.1" xmlns="http://www.w3.org/2000/svg" p-id="3343" xmlns:xlink="http://www.w3.org/1999/xlink" width="200" height="200"><defs><style type="text/css"></style></defs><path d="M643.982222 599.608889c-197.973333-18.204444-294.684444-208.213333-298.097778-216.177778v-1.137778c-21.617778-40.96-96.711111-58.026667-145.635555-27.306666C13.653333 452.835556 300.373333 839.68 512 845.368889c135.395556-3.413333 301.511111-163.84 354.986667-303.786667-71.68 40.96-135.395556 60.302222-196.835556 60.302222-7.964444-1.137778-17.066667-1.137778-26.168889-2.275555z" fill="#F36667" p-id="3344"></path><path d="M824.888889 354.986667c-48.924444-30.72-125.155556-13.653333-145.635556 27.306666-13.653333 26.168889-81.92 111.502222-166.115555 111.502223-23.893333 0-46.648889-6.826667-68.266667-18.204445 46.648889 46.648889 113.777778 92.16 201.386667 100.124445 70.542222 6.826667 144.497778-14.791111 232.106666-68.266667 15.928889-64.853333 4.551111-122.88-53.475555-152.462222z" fill="#F36667" p-id="3345"></path><path d="M512 299.235556m-121.742222 0a121.742222 121.742222 0 1 0 243.484444 0 121.742222 121.742222 0 1 0-243.484444 0Z" fill="#F36667" p-id="3346"></path></svg>